<?xml version="1.0" encoding="UTF-8" standalone="no"?>
<!DOCTYPE svg PUBLIC "-//W3C//DTD SVG 1.1//EN"
 "http://www.w3.org/Graphics/SVG/1.1/DTD/svg11.dtd">
<!-- Generated by graphviz version 2.26.3 (20100126.1600)
 -->
<!-- Title: News Pages: 1 -->
<svg width="953pt" height="466pt"
 viewBox="0.00 0.00 952.60 465.60" xmlns="http://www.w3.org/2000/svg" xmlns:xlink="http://www.w3.org/1999/xlink">
<g id="graph1" class="graph" transform="scale(1 1) rotate(0) translate(28.8 436.8)">
<title>News</title>
<polygon fill="white" stroke="white" points="-28.8,29.8 -28.8,-436.8 924.8,-436.8 924.8,29.8 -28.8,29.8"/>
<!-- m_Channel -->
<g id="node1" class="node"><title>m_Channel</title>
<polyline fill="none" stroke="black" points="762.5,-371 883.5,-371 "/>
<path fill="none" stroke="black" d="M883.5,-371C889.5,-371 895.5,-377 895.5,-383"/>
<polyline fill="none" stroke="black" points="895.5,-383 895.5,-395 "/>
<path fill="none" stroke="black" d="M895.5,-395C895.5,-401 889.5,-407 883.5,-407"/>
<polyline fill="none" stroke="black" points="883.5,-407 762.5,-407 "/>
<path fill="none" stroke="black" d="M762.5,-407C756.5,-407 750.5,-401 750.5,-395"/>
<polyline fill="none" stroke="black" points="750.5,-395 750.5,-383 "/>
<path fill="none" stroke="black" d="M750.5,-383C750.5,-377 756.5,-371 762.5,-371"/>
<text text-anchor="start" x="801.5" y="-385.933" font-family="Arial Bold" font-size="11.00">Channel</text>
</g>
<!-- m_Entry -->
<g id="node3" class="node"><title>m_Entry</title>
<polyline fill="none" stroke="black" points="589.5,-297 710.5,-297 "/>
<path fill="none" stroke="black" d="M710.5,-297C716.5,-297 722.5,-303 722.5,-309"/>
<polyline fill="none" stroke="black" points="722.5,-309 722.5,-321 "/>
<path fill="none" stroke="black" d="M722.5,-321C722.5,-327 716.5,-333 710.5,-333"/>
<polyline fill="none" stroke="black" points="710.5,-333 589.5,-333 "/>
<path fill="none" stroke="black" d="M589.5,-333C583.5,-333 577.5,-327 577.5,-321"/>
<polyline fill="none" stroke="black" points="577.5,-321 577.5,-309 "/>
<path fill="none" stroke="black" d="M577.5,-309C577.5,-303 583.5,-297 589.5,-297"/>
<text text-anchor="start" x="636" y="-311.933" font-family="Arial Bold" font-size="11.00">Entry</text>
</g>
<!-- m_Channel&#45;&gt;m_Entry -->
<g id="edge36" class="edge"><title>m_Channel&#45;&gt;m_Entry</title>
<path fill="none" stroke="black" d="M770.589,-366.581C748.913,-357.31 723.838,-346.584 702.186,-337.322"/>
<ellipse fill="none" stroke="black" cx="778.473" cy="-369.954" rx="2.40001" ry="2.40001"/>
<polygon fill="black" stroke="black" points="769.924,-368.581 776.266,-369.01 771.576,-364.719 769.924,-368.581"/>
<ellipse fill="black" stroke="black" cx="694.39" cy="-333.988" rx="2.40001" ry="2.40001"/>
<polygon fill="black" stroke="black" points="702.939,-335.36 696.596,-334.931 701.287,-339.222 702.939,-335.36"/>
</g>
<!-- m_Recipient -->
<g id="node9" class="node"><title>m_Recipient</title>
<polyline fill="none" stroke="black" points="762.5,-297 883.5,-297 "/>
<path fill="none" stroke="black" d="M883.5,-297C889.5,-297 895.5,-303 895.5,-309"/>
<polyline fill="none" stroke="black" points="895.5,-309 895.5,-321 "/>
<path fill="none" stroke="black" d="M895.5,-321C895.5,-327 889.5,-333 883.5,-333"/>
<polyline fill="none" stroke="black" points="883.5,-333 762.5,-333 "/>
<path fill="none" stroke="black" d="M762.5,-333C756.5,-333 750.5,-327 750.5,-321"/>
<polyline fill="none" stroke="black" points="750.5,-321 750.5,-309 "/>
<path fill="none" stroke="black" d="M750.5,-309C750.5,-303 756.5,-297 762.5,-297"/>
<text text-anchor="start" x="799" y="-311.933" font-family="Arial Bold" font-size="11.00">Recipient</text>
</g>
<!-- m_Channel&#45;&gt;m_Recipient -->
<g id="edge50" class="edge"><title>m_Channel&#45;&gt;m_Recipient</title>
<path fill="none" stroke="black" d="M823,-365.694C823,-358.782 823,-351.127 823,-343.905"/>
<ellipse fill="none" stroke="black" cx="823" cy="-368.308" rx="2.4" ry="2.4"/>
<ellipse fill="none" stroke="black" cx="823" cy="-335.482" rx="2.4" ry="2.4"/>
<polygon fill="black" stroke="black" points="825.1,-343.882 823,-337.882 820.9,-343.882 825.1,-343.882"/>
</g>
<!-- m_Delayed::Backend::ActiveRecord::Job -->
<g id="node2" class="node"><title>m_Delayed::Backend::ActiveRecord::Job</title>
<polyline fill="none" stroke="black" points="539.5,-371 710.5,-371 "/>
<path fill="none" stroke="black" d="M710.5,-371C716.5,-371 722.5,-377 722.5,-383"/>
<polyline fill="none" stroke="black" points="722.5,-383 722.5,-395 "/>
<path fill="none" stroke="black" d="M722.5,-395C722.5,-401 716.5,-407 710.5,-407"/>
<polyline fill="none" stroke="black" points="710.5,-407 539.5,-407 "/>
<path fill="none" stroke="black" d="M539.5,-407C533.5,-407 527.5,-401 527.5,-395"/>
<polyline fill="none" stroke="black" points="527.5,-395 527.5,-383 "/>
<path fill="none" stroke="black" d="M527.5,-383C527.5,-377 533.5,-371 539.5,-371"/>
<text text-anchor="start" x="533.5" y="-385.933" font-family="Arial Bold" font-size="11.00">Delayed::Backend::ActiveRecord::Job</text>
</g>
<!-- m_Delayed::Backend::ActiveRecord::Job&#45;&gt;m_Entry -->
<g id="edge34" class="edge"><title>m_Delayed::Backend::ActiveRecord::Job&#45;&gt;m_Entry</title>
<path fill="none" stroke="black" d="M632.777,-365.981C635.182,-358.861 637.861,-350.932 640.376,-343.489"/>
<ellipse fill="none" stroke="black" cx="631.948" cy="-368.434" rx="2.40001" ry="2.40001"/>
<ellipse fill="none" stroke="black" cx="643.123" cy="-335.355" rx="2.40001" ry="2.40001"/>
<polygon fill="black" stroke="black" points="642.424,-343.986 642.355,-337.629 638.445,-342.641 642.424,-343.986"/>
</g>
<!-- m_Event -->
<g id="node4" class="node"><title>m_Event</title>
<polyline fill="none" stroke="black" points="11.5,-75 132.5,-75 "/>
<path fill="none" stroke="black" d="M132.5,-75C138.5,-75 144.5,-81 144.5,-87"/>
<polyline fill="none" stroke="black" points="144.5,-87 144.5,-99 "/>
<path fill="none" stroke="black" d="M144.5,-99C144.5,-105 138.5,-111 132.5,-111"/>
<polyline fill="none" stroke="black" points="132.5,-111 11.5,-111 "/>
<path fill="none" stroke="black" d="M11.5,-111C5.5,-111 -0.5,-105 -0.5,-99"/>
<polyline fill="none" stroke="black" points="-0.5,-99 -0.5,-87 "/>
<path fill="none" stroke="black" d="M-0.5,-87C-0.5,-81 5.5,-75 11.5,-75"/>
<text text-anchor="start" x="56.5" y="-89.9333" font-family="Arial Bold" font-size="11.00">Event</text>
</g>
<!-- m_Entry&#45;&gt;m_Event -->
<g id="edge38" class="edge"><title>m_Entry&#45;&gt;m_Event</title>
<path fill="none" stroke="black" d="M572.506,-301.968C523.163,-292.206 465.218,-277.544 447,-260 415.813,-229.967 426.961,-209.359 418,-167"/>
<ellipse fill="none" stroke="black" cx="574.897" cy="-302.436" rx="2.40001" ry="2.40001"/>
</g>
<!-- m_Prepare -->
<g id="node7" class="node"><title>m_Prepare</title>
<polyline fill="none" stroke="#999999" points="473.5,-223 594.5,-223 "/>
<path fill="none" stroke="#999999" d="M594.5,-223C600.5,-223 606.5,-229 606.5,-235"/>
<polyline fill="none" stroke="#999999" points="606.5,-235 606.5,-247 "/>
<path fill="none" stroke="#999999" d="M606.5,-247C606.5,-253 600.5,-259 594.5,-259"/>
<polyline fill="none" stroke="#999999" points="594.5,-259 473.5,-259 "/>
<path fill="none" stroke="#999999" d="M473.5,-259C467.5,-259 461.5,-253 461.5,-247"/>
<polyline fill="none" stroke="#999999" points="461.5,-247 461.5,-235 "/>
<path fill="none" stroke="#999999" d="M461.5,-235C461.5,-229 467.5,-223 473.5,-223"/>
<text text-anchor="start" x="513" y="-237.933" font-family="Arial Bold" font-size="11.00" fill="#999999">Prepare</text>
</g>
<!-- m_Entry&#45;&gt;m_Prepare -->
<g id="edge40" class="edge"><title>m_Entry&#45;&gt;m_Prepare</title>
<path fill="none" stroke="black" d="M617.32,-294.152C601.543,-284.088 582.655,-272.039 566.855,-261.959"/>
<ellipse fill="none" stroke="black" cx="619.6" cy="-295.607" rx="2.40002" ry="2.40002"/>
<ellipse fill="none" stroke="black" cx="564.509" cy="-260.463" rx="2.40002" ry="2.40002"/>
</g>
<!-- m_Publish -->
<g id="node8" class="node"><title>m_Publish</title>
<polyline fill="none" stroke="#999999" points="416.5,-75 537.5,-75 "/>
<path fill="none" stroke="#999999" d="M537.5,-75C543.5,-75 549.5,-81 549.5,-87"/>
<polyline fill="none" stroke="#999999" points="549.5,-87 549.5,-99 "/>
<path fill="none" stroke="#999999" d="M549.5,-99C549.5,-105 543.5,-111 537.5,-111"/>
<polyline fill="none" stroke="#999999" points="537.5,-111 416.5,-111 "/>
<path fill="none" stroke="#999999" d="M416.5,-111C410.5,-111 404.5,-105 404.5,-99"/>
<polyline fill="none" stroke="#999999" points="404.5,-99 404.5,-87 "/>
<path fill="none" stroke="#999999" d="M404.5,-87C404.5,-81 410.5,-75 416.5,-75"/>
<text text-anchor="start" x="457.5" y="-89.9333" font-family="Arial Bold" font-size="11.00" fill="#999999">Publish</text>
</g>
<!-- m_Entry&#45;&gt;m_Publish -->
<g id="edge44" class="edge"><title>m_Entry&#45;&gt;m_Publish</title>
<path fill="none" stroke="black" d="M650,-241C639.268,-209.911 663.757,-196.873 650,-167"/>
<path fill="none" stroke="black" d="M650,-167C640.574,-146.53 591.056,-126.63 547.4,-112.632"/>
<ellipse fill="none" stroke="black" cx="544.941" cy="-111.851" rx="2.40001" ry="2.40001"/>
</g>
<!-- m_Review -->
<g id="node10" class="node"><title>m_Review</title>
<polyline fill="none" stroke="#999999" points="589.5,-75 710.5,-75 "/>
<path fill="none" stroke="#999999" d="M710.5,-75C716.5,-75 722.5,-81 722.5,-87"/>
<polyline fill="none" stroke="#999999" points="722.5,-87 722.5,-99 "/>
<path fill="none" stroke="#999999" d="M722.5,-99C722.5,-105 716.5,-111 710.5,-111"/>
<polyline fill="none" stroke="#999999" points="710.5,-111 589.5,-111 "/>
<path fill="none" stroke="#999999" d="M589.5,-111C583.5,-111 577.5,-105 577.5,-99"/>
<polyline fill="none" stroke="#999999" points="577.5,-99 577.5,-87 "/>
<path fill="none" stroke="#999999" d="M577.5,-87C577.5,-81 583.5,-75 589.5,-75"/>
<text text-anchor="start" x="630.5" y="-89.9333" font-family="Arial Bold" font-size="11.00" fill="#999999">Review</text>
</g>
<!-- m_Entry&#45;&gt;m_Review -->
<g id="edge42" class="edge"><title>m_Entry&#45;&gt;m_Review</title>
<path fill="none" stroke="black" d="M650,-167C642.71,-151.169 643.146,-131.335 645.167,-116.187"/>
<ellipse fill="none" stroke="black" cx="645.551" cy="-113.616" rx="2.40001" ry="2.40001"/>
</g>
<!-- m_Task -->
<g id="node12" class="node"><title>m_Task</title>
<polyline fill="none" stroke="black" points="473.5,-149 594.5,-149 "/>
<path fill="none" stroke="black" d="M594.5,-149C600.5,-149 606.5,-155 606.5,-161"/>
<polyline fill="none" stroke="black" points="606.5,-161 606.5,-173 "/>
<path fill="none" stroke="black" d="M606.5,-173C606.5,-179 600.5,-185 594.5,-185"/>
<polyline fill="none" stroke="black" points="594.5,-185 473.5,-185 "/>
<path fill="none" stroke="black" d="M473.5,-185C467.5,-185 461.5,-179 461.5,-173"/>
<polyline fill="none" stroke="black" points="461.5,-173 461.5,-161 "/>
<path fill="none" stroke="black" d="M461.5,-161C461.5,-155 467.5,-149 473.5,-149"/>
<text text-anchor="start" x="521" y="-163.933" font-family="Arial Bold" font-size="11.00">Task</text>
</g>
<!-- m_Entry&#45;&gt;m_Task -->
<g id="edge12" class="edge"><title>m_Entry&#45;&gt;m_Task</title>
<path fill="none" stroke="black" d="M653.801,-291.942C655.351,-277.008 655.649,-257.366 650,-241"/>
<ellipse fill="none" stroke="black" cx="653.512" cy="-294.431" rx="2.40001" ry="2.40001"/>
<path fill="none" stroke="black" d="M650,-241C642.024,-217.894 621.89,-201.436 600.593,-190.004"/>
<ellipse fill="none" stroke="black" cx="592.912" cy="-186.171" rx="2.40001" ry="2.40001"/>
<polygon fill="black" stroke="black" points="601.366,-188.043 595.06,-187.243 599.49,-191.801 601.366,-188.043"/>
</g>
<!-- m_Following -->
<g id="node5" class="node"><title>m_Following</title>
<polyline fill="none" stroke="black" points="182.5,-297 303.5,-297 "/>
<path fill="none" stroke="black" d="M303.5,-297C309.5,-297 315.5,-303 315.5,-309"/>
<polyline fill="none" stroke="black" points="315.5,-309 315.5,-321 "/>
<path fill="none" stroke="black" d="M315.5,-321C315.5,-327 309.5,-333 303.5,-333"/>
<polyline fill="none" stroke="black" points="303.5,-333 182.5,-333 "/>
<path fill="none" stroke="black" d="M182.5,-333C176.5,-333 170.5,-327 170.5,-321"/>
<polyline fill="none" stroke="black" points="170.5,-321 170.5,-309 "/>
<path fill="none" stroke="black" d="M170.5,-309C170.5,-303 176.5,-297 182.5,-297"/>
<text text-anchor="start" x="218.5" y="-311.933" font-family="Arial Bold" font-size="11.00">Following</text>
</g>
<!-- m_Issue -->
<g id="node6" class="node"><title>m_Issue</title>
<polyline fill="none" stroke="#999999" points="184.5,-75 305.5,-75 "/>
<path fill="none" stroke="#999999" d="M305.5,-75C311.5,-75 317.5,-81 317.5,-87"/>
<polyline fill="none" stroke="#999999" points="317.5,-87 317.5,-99 "/>
<path fill="none" stroke="#999999" d="M317.5,-99C317.5,-105 311.5,-111 305.5,-111"/>
<polyline fill="none" stroke="#999999" points="305.5,-111 184.5,-111 "/>
<path fill="none" stroke="#999999" d="M184.5,-111C178.5,-111 172.5,-105 172.5,-99"/>
<polyline fill="none" stroke="#999999" points="172.5,-99 172.5,-87 "/>
<path fill="none" stroke="#999999" d="M172.5,-87C172.5,-81 178.5,-75 184.5,-75"/>
<text text-anchor="start" x="230.5" y="-89.9333" font-family="Arial Bold" font-size="11.00" fill="#999999">Issue</text>
</g>
<!-- m_Subtask -->
<g id="node11" class="node"><title>m_Subtask</title>
<polyline fill="none" stroke="#999999" points="184.5,-1 305.5,-1 "/>
<path fill="none" stroke="#999999" d="M305.5,-1C311.5,-1 317.5,-7 317.5,-13"/>
<polyline fill="none" stroke="#999999" points="317.5,-13 317.5,-25 "/>
<path fill="none" stroke="#999999" d="M317.5,-25C317.5,-31 311.5,-37 305.5,-37"/>
<polyline fill="none" stroke="#999999" points="305.5,-37 184.5,-37 "/>
<path fill="none" stroke="#999999" d="M184.5,-37C178.5,-37 172.5,-31 172.5,-25"/>
<polyline fill="none" stroke="#999999" points="172.5,-25 172.5,-13 "/>
<path fill="none" stroke="#999999" d="M172.5,-13C172.5,-7 178.5,-1 184.5,-1"/>
<text text-anchor="start" x="224" y="-15.9333" font-family="Arial Bold" font-size="11.00" fill="#999999">Subtask</text>
</g>
<!-- m_Issue&#45;&gt;m_Subtask -->
<g id="edge18" class="edge"><title>m_Issue&#45;&gt;m_Subtask</title>
<path fill="none" stroke="black" d="M245,-69.6939C245,-62.7818 245,-55.1273 245,-47.9054"/>
<ellipse fill="none" stroke="black" cx="245" cy="-72.3079" rx="2.4" ry="2.4"/>
<ellipse fill="none" stroke="black" cx="245" cy="-39.4817" rx="2.4" ry="2.4"/>
<polygon fill="black" stroke="black" points="247.1,-47.8817 245,-41.8817 242.9,-47.8817 247.1,-47.8817"/>
</g>
<!-- m_Prepare&#45;&gt;m_Task -->
<g id="edge20" class="edge"><title>m_Prepare&#45;&gt;m_Task</title>
<path fill="none" stroke="black" d="M534,-217.694C534,-209.301 534,-199.813 534,-191.334"/>
<ellipse fill="none" stroke="black" cx="534" cy="-220.308" rx="2.4" ry="2.4"/>
<polygon fill="black" stroke="black" points="536.1,-191.082 534,-185.082 531.9,-191.082 536.1,-191.082"/>
</g>
<!-- m_Task&#45;&gt;m_Event -->
<g id="edge48" class="edge"><title>m_Task&#45;&gt;m_Event</title>
<path fill="none" stroke="black" d="M456.728,-150.917C451.076,-149.883 445.455,-148.898 440,-148 315.329,-127.47 282.482,-133.651 158,-112 157.181,-111.858 156.358,-111.713 155.531,-111.565"/>
<ellipse fill="none" stroke="black" cx="459.121" cy="-151.36" rx="2.40001" ry="2.40001"/>
<ellipse fill="none" stroke="black" cx="146.994" cy="-109.972" rx="2.4" ry="2.4"/>
<polygon fill="black" stroke="black" points="155.636,-109.449 149.353,-110.412 154.866,-113.577 155.636,-109.449"/>
</g>
<!-- m_Task&#45;&gt;m_Issue -->
<g id="edge2" class="edge"><title>m_Task&#45;&gt;m_Issue</title>
<path fill="none" stroke="#999999" d="M451.788,-145.949C408.736,-134.926 356.562,-121.566 315.392,-111.024"/>
<polygon fill="none" stroke="#999999" points="451.005,-150.084 463.672,-148.992 453.089,-141.947 451.005,-150.084"/>
</g>
<!-- m_Task&#45;&gt;m_Publish -->
<g id="edge6" class="edge"><title>m_Task&#45;&gt;m_Publish</title>
<path fill="none" stroke="#999999" d="M512.433,-139.001C505.228,-129.647 497.394,-119.476 490.928,-111.082"/>
<polygon fill="none" stroke="#999999" points="509.26,-141.764 519.91,-148.708 515.915,-136.638 509.26,-141.764"/>
</g>
<!-- m_Task&#45;&gt;m_Review -->
<g id="edge8" class="edge"><title>m_Task&#45;&gt;m_Review</title>
<path fill="none" stroke="#999999" d="M572.509,-142.434C588.511,-132.226 606.751,-120.59 621.514,-111.172"/>
<polygon fill="none" stroke="#999999" points="570.235,-138.903 562.377,-148.898 574.752,-145.985 570.235,-138.903"/>
</g>
<!-- m_Task&#45;&gt;m_Subtask -->
<g id="edge10" class="edge"><title>m_Task&#45;&gt;m_Subtask</title>
<path fill="none" stroke="#999999" d="M467.334,-144.812C442.561,-135.722 414.53,-124.415 390,-112 362.171,-97.9155 357.249,-90.8468 331,-74 311.759,-61.6514 290.072,-47.7822 273.29,-37.0604"/>
<polygon fill="none" stroke="#999999" points="466.118,-148.839 478.832,-148.96 468.969,-140.937 466.118,-148.839"/>
</g>
<!-- m_User -->
<g id="node13" class="node"><title>m_User</title>
<polyline fill="none" stroke="black" points="298.5,-371 419.5,-371 "/>
<path fill="none" stroke="black" d="M419.5,-371C425.5,-371 431.5,-377 431.5,-383"/>
<polyline fill="none" stroke="black" points="431.5,-383 431.5,-395 "/>
<path fill="none" stroke="black" d="M431.5,-395C431.5,-401 425.5,-407 419.5,-407"/>
<polyline fill="none" stroke="black" points="419.5,-407 298.5,-407 "/>
<path fill="none" stroke="black" d="M298.5,-407C292.5,-407 286.5,-401 286.5,-395"/>
<polyline fill="none" stroke="black" points="286.5,-395 286.5,-383 "/>
<path fill="none" stroke="black" d="M286.5,-383C286.5,-377 292.5,-371 298.5,-371"/>
<text text-anchor="start" x="346" y="-385.933" font-family="Arial Bold" font-size="11.00">User</text>
</g>
<!-- m_User&#45;&gt;m_Entry -->
<g id="edge28" class="edge"><title>m_User&#45;&gt;m_Entry</title>
<path fill="none" stroke="black" d="M434.644,-369.764C475.773,-359.305 526.667,-346.363 568.65,-335.687"/>
<ellipse fill="none" stroke="black" cx="432.14" cy="-370.401" rx="2.40001" ry="2.40001"/>
<ellipse fill="none" stroke="black" cx="576.795" cy="-333.616" rx="2.4" ry="2.4"/>
<polygon fill="black" stroke="black" points="569.171,-337.721 574.469,-334.207 568.136,-333.651 569.171,-337.721"/>
</g>
<!-- m_User&#45;&gt;m_Event -->
<g id="edge46" class="edge"><title>m_User&#45;&gt;m_Event</title>
<path fill="none" stroke="black" d="M281.15,-381.82C210.891,-371.869 123.198,-348.713 156,-296 224.574,-185.8 447.845,-293.316 418,-167"/>
<ellipse fill="none" stroke="black" cx="283.8" cy="-382.185" rx="2.40001" ry="2.40001"/>
<path fill="none" stroke="black" d="M418,-167C395.678,-112.325 215.722,-124.481 158,-112 157.187,-111.824 156.37,-111.647 155.55,-111.47"/>
<ellipse fill="none" stroke="black" cx="147.061" cy="-109.623" rx="2.4" ry="2.4"/>
<polygon fill="black" stroke="black" points="155.715,-109.357 149.406,-110.133 154.823,-113.461 155.715,-109.357"/>
</g>
<!-- m_User&#45;&gt;m_Following -->
<g id="edge22" class="edge"><title>m_User&#45;&gt;m_Following</title>
<path fill="none" stroke="black" d="M326.32,-368.152C312.161,-359.12 295.497,-348.49 280.808,-339.119"/>
<ellipse fill="none" stroke="black" cx="328.6" cy="-369.607" rx="2.40002" ry="2.40002"/>
<ellipse fill="none" stroke="black" cx="273.509" cy="-334.463" rx="2.40001" ry="2.40001"/>
<polygon fill="black" stroke="black" points="281.72,-337.21 275.533,-335.754 279.462,-340.751 281.72,-337.21"/>
</g>
<!-- m_User&#45;&gt;m_Task -->
<g id="edge14" class="edge"><title>m_User&#45;&gt;m_Task</title>
<path fill="none" stroke="black" d="M366.749,-365.941C379.248,-331.42 406.614,-265.7 447,-222 458.234,-209.845 472.728,-199.285 486.652,-190.758"/>
<ellipse fill="none" stroke="black" cx="365.82" cy="-368.541" rx="2.40001" ry="2.40001"/>
<ellipse fill="none" stroke="black" cx="494.084" cy="-186.399" rx="2.40001" ry="2.40001"/>
<polygon fill="black" stroke="black" points="487.9,-192.46 492.013,-187.613 485.775,-188.837 487.9,-192.46"/>
</g>
<!-- m_User&#45;&gt;m_User -->
<g id="edge26" class="edge"><title>m_User&#45;&gt;m_User</title>
<path fill="none" stroke="black" stroke-dasharray="1,5" d="M436.48,-402.063C450.327,-400.366 460,-396.012 460,-389 460,-383.086 453.118,-379.062 442.654,-376.929"/>
<ellipse fill="none" stroke="black" cx="434.021" cy="-402.303" rx="2.4" ry="2.4"/>
<ellipse fill="none" stroke="black" cx="434.011" cy="-375.78" rx="2.4" ry="2.4"/>
<polygon fill="black" stroke="black" points="442.614,-374.806 436.39,-376.096 442.061,-378.969 442.614,-374.806"/>
</g>
</g>
</svg>
